<?xml version="1.0" standalone="no"?>
<!DOCTYPE svg PUBLIC "-//W3C//DTD SVG 20010904//EN"
 "http://www.w3.org/TR/2001/REC-SVG-20010904/DTD/svg10.dtd">
<svg version="1.0" xmlns="http://www.w3.org/2000/svg"
 width="1024.000000pt" height="1024.000000pt" viewBox="0 0 1024.000000 1024.000000"
 preserveAspectRatio="xMidYMid meet">
<metadata>
Created by potrace 1.11, written by Peter Selinger 2001-2013
</metadata>
<g transform="translate(0.000000,1024.000000) scale(0.100000,-0.100000)"
fill="#000000" stroke="none">
<path d="M2467 9843 c-3 -2 -31 -6 -63 -9 -65 -5 -319 -48 -319 -54 0 -1 -9
-3 -20 -4 -51 -6 -281 -82 -400 -131 -54 -23 -270 -130 -325 -162 -50 -29
-212 -136 -232 -152 -7 -6 -42 -34 -78 -62 -125 -98 -275 -240 -362 -344 -18
-21 -40 -46 -48 -55 -29 -30 -127 -166 -185 -255 -32 -49 -66 -101 -75 -115
-24 -37 -155 -308 -171 -355 -8 -22 -18 -43 -24 -47 -5 -4 -7 -8 -3 -8 4 0 -9
-43 -28 -96 -18 -53 -31 -100 -28 -105 3 -5 1 -9 -4 -9 -5 0 -10 -6 -11 -12
-1 -7 -3 -24 -5 -38 -2 -14 -6 -32 -9 -40 -7 -20 -31 -122 -32 -140 -1 -8 -4
-31 -8 -50 -26 -136 -31 -217 -31 -460 0 -235 8 -374 30 -520 2 -19 7 -55 10
-79 2 -24 7 -47 9 -51 3 -4 7 -32 11 -61 3 -30 9 -58 12 -64 4 -5 7 -14 8 -20
3 -19 13 -70 19 -99 7 -32 43 -172 51 -196 3 -8 5 -17 5 -20 1 -3 5 -11 11
-17 6 -7 8 -13 5 -13 -13 0 96 -281 167 -433 25 -55 46 -103 46 -108 0 -5 3
-9 8 -9 4 0 18 -25 32 -55 14 -30 28 -55 32 -55 5 0 8 -6 8 -13 0 -7 20 -45
45 -85 25 -39 42 -72 37 -72 -4 0 -2 -4 3 -8 12 -9 55 -69 55 -77 0 -4 6 -13
12 -20 31 -34 36 -43 31 -49 -4 -3 -1 -6 5 -6 7 0 12 -5 12 -10 0 -6 5 -16 10
-23 29 -35 70 -91 70 -96 0 -3 14 -21 30 -40 17 -18 30 -37 30 -40 0 -3 10
-17 23 -31 12 -14 36 -43 52 -65 17 -22 32 -42 35 -45 3 -3 33 -39 67 -80 34
-41 78 -93 98 -115 20 -22 64 -71 98 -110 154 -172 549 -556 849 -825 22 -19
59 -54 84 -76 24 -23 44 -40 44 -38 0 2 13 -9 28 -24 16 -15 45 -41 65 -58 47
-40 170 -149 214 -191 19 -18 37 -33 39 -33 3 0 22 -15 42 -34 20 -19 48 -44
62 -55 14 -12 36 -32 50 -45 24 -22 52 -47 189 -166 35 -30 78 -70 96 -88 18
-17 35 -32 38 -32 3 0 26 -19 50 -42 24 -24 77 -72 117 -108 40 -36 88 -78
106 -95 17 -16 66 -61 108 -100 42 -38 125 -116 184 -172 59 -57 110 -103 115
-103 4 0 7 -7 7 -15 0 -8 4 -15 9 -15 13 0 455 -447 576 -584 6 -6 44 -49 85
-96 41 -47 83 -92 92 -101 10 -9 15 -19 11 -23 -3 -3 -2 -6 4 -6 9 0 131 -139
190 -215 22 -28 115 -142 127 -155 37 -41 338 -448 346 -468 5 -12 68 71 165
218 17 25 32 47 35 50 4 3 22 27 41 55 18 27 39 55 44 61 6 7 19 24 30 40 11
15 30 40 43 55 12 15 22 32 22 37 0 6 6 15 13 19 6 4 24 24 39 45 15 20 33 42
40 50 7 7 25 29 40 50 15 20 33 42 40 50 7 7 26 31 43 53 16 21 36 46 45 55 8
9 35 40 60 70 25 30 65 77 90 105 24 27 51 58 60 68 37 45 211 234 315 344
193 204 526 528 810 788 54 50 113 104 131 120 17 17 43 39 55 50 22 19 108
96 313 279 92 82 115 103 181 161 32 28 62 55 69 60 6 6 49 44 96 85 46 41
105 94 130 117 25 23 54 50 66 60 51 44 170 151 209 188 24 22 96 90 161 150
248 231 549 541 714 735 40 47 83 97 96 112 13 15 69 87 124 160 55 73 107
140 115 149 8 9 15 21 15 27 0 7 5 12 12 12 6 0 9 3 5 6 -3 3 5 18 19 32 13
15 24 30 24 35 0 10 42 71 53 75 4 2 7 10 7 17 0 8 6 20 14 27 7 8 21 30 31
48 10 19 24 43 33 53 8 9 12 17 8 17 -4 0 2 12 13 26 12 15 21 32 21 38 0 7 9
22 20 34 12 12 19 22 16 22 -3 0 19 47 49 105 29 58 53 109 54 113 0 4 10 30
22 57 53 121 59 135 59 148 0 7 6 21 14 32 7 11 14 23 15 28 0 4 1 8 2 10 0 1
2 9 4 17 6 26 14 51 50 175 29 100 71 273 80 335 1 8 5 35 9 60 4 25 9 59 11
75 2 17 4 30 5 30 2 0 5 26 16 150 10 119 11 493 1 585 -10 93 -17 151 -23
180 -3 14 -7 39 -10 55 -2 17 -7 41 -11 55 -3 14 -8 34 -10 45 -8 37 -11 50
-13 50 -1 0 -3 11 -6 25 -5 29 -42 155 -54 185 -12 30 -23 59 -24 65 -3 12
-31 80 -57 138 -16 34 -31 73 -35 87 -3 14 -10 27 -14 30 -5 3 -21 31 -36 63
-16 31 -31 59 -34 62 -3 3 -12 18 -20 35 -21 42 -135 217 -154 236 -9 9 -16
19 -16 23 0 4 -6 13 -12 20 -7 7 -24 28 -38 46 -84 111 -299 328 -425 429 -49
40 -98 79 -108 87 -9 8 -20 14 -24 14 -3 0 -14 7 -24 16 -28 25 -222 144 -235
144 -7 0 -14 4 -16 9 -4 13 -238 123 -338 159 -122 44 -162 57 -275 88 -17 5
-58 14 -90 20 -45 9 -60 12 -60 14 0 1 -11 3 -25 5 -14 1 -56 8 -95 14 -125
21 -177 25 -375 25 -201 0 -274 -5 -395 -31 -38 -8 -81 -16 -95 -18 -14 -2
-40 -8 -57 -14 -18 -5 -33 -7 -33 -4 0 3 -7 0 -15 -7 -8 -6 -24 -13 -37 -15
-66 -10 -260 -88 -406 -164 -130 -67 -192 -104 -192 -112 0 -5 -5 -9 -11 -9
-26 0 -258 -172 -388 -288 -109 -98 -192 -183 -326 -337 -15 -16 -67 -84 -116
-150 -50 -66 -97 -129 -107 -140 -9 -11 -16 -22 -15 -25 0 -3 -14 -27 -31 -55
-52 -81 -80 -128 -96 -160 -8 -16 -17 -32 -20 -35 -3 -3 -28 -51 -55 -107 -28
-57 -52 -103 -55 -103 -3 0 -30 51 -60 113 -30 61 -57 114 -60 117 -3 3 -11
16 -18 29 -8 13 -22 38 -32 56 -10 18 -24 43 -32 56 -7 13 -15 26 -18 29 -3 3
-21 30 -40 60 -19 30 -40 61 -47 68 -7 7 -20 26 -30 42 -9 17 -21 30 -25 30
-4 0 -8 5 -8 11 0 9 -46 72 -80 109 -8 9 -30 35 -48 57 -59 73 -183 204 -288
304 -116 110 -423 339 -454 339 -5 0 -10 3 -10 8 0 4 -21 18 -47 32 -27 13
-50 27 -53 30 -6 7 -123 62 -130 62 -3 0 -12 6 -21 14 -9 8 -19 11 -22 7 -4
-3 -7 -1 -7 5 0 7 -3 11 -7 10 -5 -1 -24 5 -44 14 -20 9 -47 19 -60 23 -13 4
-37 13 -54 20 -54 24 -255 82 -310 89 -11 2 -45 8 -76 15 -31 7 -76 14 -100
17 -55 7 -467 13 -472 7z"/>
</g>
</svg>
